<svg width="19" height="18" viewBox="0 0 19 18" fill="none" xmlns="http://www.w3.org/2000/svg">
<g clip-path="url(#clip0_109_207)">
<path d="M9.57457 0C14.6143 0 18.7143 4.03736 18.7143 9C18.7143 13.9626 14.6143 18 9.57457 18C4.53486 18 0.434814 13.9626 0.434814 9C0.434814 4.03736 4.53486 0 9.57457 0ZM9.57457 16.7143C13.8943 16.7143 17.4086 13.2536 17.4086 9C17.4086 4.74636 13.8943 1.28571 9.57457 1.28571C5.25487 1.28571 1.74049 4.74636 1.74049 9C1.74049 13.2536 5.25487 16.7143 9.57457 16.7143Z" fill="#1F1D36"/>
<path d="M6.77376 6.24199C7.02873 5.99092 7.44205 5.99092 7.69702 6.24199L9.57458 8.09085L11.4522 6.24192C11.7072 5.99085 12.1205 5.99085 12.3755 6.24192C12.6305 6.49299 12.6305 6.89999 12.3755 7.15107L10.4978 8.99999L12.3755 10.8489C12.6305 11.1 12.6305 11.507 12.3755 11.7581C12.248 11.8836 12.0809 11.9464 11.9139 11.9464C11.7468 11.9464 11.5797 11.8836 11.4522 11.7581L9.57458 9.90914L7.69695 11.7581C7.5695 11.8836 7.40237 11.9464 7.23532 11.9464C7.06826 11.9464 6.90121 11.8836 6.77368 11.7581C6.51871 11.507 6.51871 11.1 6.77368 10.8489L8.65132 8.99999L6.77368 7.15107C6.51879 6.90007 6.51879 6.49299 6.77376 6.24199Z" fill="#1F1D36"/>
</g>
<defs>
<clipPath id="clip0_109_207">
<rect width="18.2795" height="18" fill="white" transform="matrix(-1 0 0 1 18.7143 0)"/>
</clipPath>
</defs>
</svg>
