<svg width="18" height="18" viewBox="0 0 18 18" fill="none" xmlns="http://www.w3.org/2000/svg">
<path d="M5.91373 5.95244L5.19583 6.00745L5.91047 15.3342L6.62837 15.2792L5.91373 5.95244Z" fill="black"/>
<path d="M9.36 5.97961H8.64001V15.3061H9.36V5.97961Z" fill="black"/>
<path d="M12.0858 5.95255L11.3731 15.2792L12.091 15.3341L12.8037 6.00741L12.0858 5.95255Z" fill="black"/>
<path d="M16.4029 2.56358H14.5319V1.00828C14.5319 0.452461 14.0798 0 13.524 0H4.47583C3.92001 0 3.46791 0.452461 3.46791 1.00828V2.56358H1.59686H0.539368V3.28357H1.68608L3.32938 16.5449C3.43223 17.3746 4.14026 18 4.97626 18H13.0236C13.8596 18 14.5676 17.3746 14.6704 16.5449L16.3137 3.2836H17.4606V2.56358H16.4029ZM4.1879 1.00828C4.1879 0.849383 4.31711 0.719988 4.47583 0.719988H13.524C13.6827 0.719988 13.8119 0.849346 13.8119 1.00828V2.56358H4.1879V1.00828ZM13.956 16.4563C13.8977 16.926 13.4969 17.28 13.0235 17.28H4.97626C4.50289 17.28 4.10209 16.926 4.04373 16.4563L2.41144 3.2836H3.46788H14.5319H15.5883L13.956 16.4563Z" fill="black"/>
</svg>
