<svg width="17" height="17" viewBox="0 0 17 17" fill="none" xmlns="http://www.w3.org/2000/svg">
<path d="M15.8989 1.10158C14.4355 -0.365403 12.0557 -0.365403 10.5924 1.10158L0.863205 10.8271C0.787139 10.9032 0.740051 11.001 0.725562 11.106L0.00474904 16.4451C-0.016984 16.5973 0.0373486 16.7494 0.142392 16.8544C0.232946 16.945 0.359722 16.9993 0.486499 16.9993C0.508232 16.9993 0.529965 16.9993 0.551698 16.9957L3.76819 16.561C4.03623 16.5248 4.22458 16.2785 4.18836 16.0105C4.15214 15.7424 3.90583 15.5541 3.63779 15.5903L1.0588 15.938L1.56228 12.2144L5.48148 16.1336C5.57203 16.2242 5.69881 16.2785 5.82559 16.2785C5.95236 16.2785 6.07914 16.2278 6.16969 16.1336L15.8989 6.40807C16.6088 5.69812 17 4.75636 17 3.75301C17 2.74967 16.6088 1.8079 15.8989 1.10158ZM10.7807 2.2969L12.4143 3.9305L3.53637 12.8085L1.90277 11.1749L10.7807 2.2969ZM5.82921 15.0977L4.23183 13.5003L13.1098 4.62234L14.7072 6.21972L5.82921 15.0977ZM15.3881 5.52064L11.4798 1.61231C11.976 1.203 12.5954 0.978425 13.2474 0.978425C13.99 0.978425 14.6854 1.2682 15.2106 1.78979C15.7359 2.31139 16.022 3.01047 16.022 3.75301C16.022 4.40863 15.7974 5.0244 15.3881 5.52064Z" fill="#1F1D36"/>
</svg>
