<svg width="20" height="20" viewBox="0 0 20 20" fill="none" xmlns="http://www.w3.org/2000/svg">
<path d="M9.99999 0.833344C15.0626 0.833344 19.1667 4.9374 19.1667 10C19.1667 15.0626 15.0626 19.1667 9.99999 19.1667C4.93738 19.1667 0.833328 15.0626 0.833328 10C0.833328 4.9374 4.93738 0.833344 9.99999 0.833344ZM9.99999 1.97918C5.57021 1.97918 1.97916 5.57023 1.97916 10C1.97916 14.4298 5.57021 18.0208 9.99999 18.0208C14.4298 18.0208 18.0208 14.4298 18.0208 10C18.0208 5.57023 14.4298 1.97918 9.99999 1.97918ZM13.9572 7.07406C14.1809 7.2978 14.1809 7.66055 13.9572 7.88429L8.91552 12.926C8.69179 13.1497 8.32904 13.1497 8.1053 12.926L6.0428 10.8635C5.81906 10.6397 5.81906 10.277 6.0428 10.0532C6.26654 9.82949 6.62929 9.82949 6.85302 10.0532L8.51041 11.7106L13.147 7.07406C13.3707 6.85033 13.7335 6.85033 13.9572 7.07406Z" fill="#212121"/>
</svg>
